HIERARCHY
ROOT hip
{
	OFFSET 0.000000 0.000000 0.000000
	CHANNELS 6 Xposition Yposition Zposition Xrotation Zrotation Yrotation 
	JOINT abdomen
	{
		OFFSET 0.000000 3.422050 0.000000
		CHANNELS 3 Xrotation Zrotation Yrotation 
		JOINT chest
		{
			OFFSET 0.000000 8.486693 -0.684411
			CHANNELS 3 Xrotation Zrotation Yrotation 
			JOINT neck
			{
				OFFSET 0.000000 10.266162 -0.273764
				CHANNELS 3 Xrotation Zrotation Yrotation 
				JOINT head
				{
					OFFSET 0.000000 3.148285 0.000000
					CHANNELS 3 Xrotation Zrotation Yrotation 
					End Site
					{
						OFFSET 0.000000 3.148289 0.000000
					}
				}
			}
			JOINT lCollar
			{
				OFFSET 3.422053 6.707223 -0.821293
				CHANNELS 3 Yrotation Zrotation Xrotation 
				JOINT lShldr
				{
					OFFSET 3.285171 0.000000 0.000000
					CHANNELS 3 Zrotation Yrotation Xrotation 
					JOINT lForeArm
					{
						OFFSET 10.129278 0.000000 0.000000
						CHANNELS 3 Yrotation Zrotation Xrotation 
						JOINT lHand
						{
							OFFSET 8.486692 0.000000 0.000000
							CHANNELS 3 Zrotation Yrotation Xrotation 
							End Site
							{
								OFFSET 4.106464 0.000000 0.000000
							}
						}
					}
				}
			}
			JOINT rCollar
			{
				OFFSET -3.558935 6.707223 -0.821293
				CHANNELS 3 Yrotation Zrotation Xrotation 
				JOINT rShldr
				{
					OFFSET -3.148289 0.000000 0.000000
					CHANNELS 3 Zrotation Yrotation Xrotation 
					JOINT rForeArm
					{
						OFFSET -10.266159 0.000000 0.000000
						CHANNELS 3 Yrotation Zrotation Xrotation 
						JOINT rHand
						{
							OFFSET -8.349810 0.000000 0.000000
							CHANNELS 3 Zrotation Yrotation Xrotation 
							End Site
							{
								OFFSET -4.106464 0.000000 0.000000
							}
						}
					}
				}
			}
		}
	}
	JOINT lThigh
	{
		OFFSET 5.338403 -1.642589 1.368821
		CHANNELS 3 Xrotation Zrotation Yrotation 
		JOINT lShin
		{
			OFFSET -2.053232 -20.121670 0.000000
			CHANNELS 3 Xrotation Zrotation Yrotation 
			JOINT lFoot
			{
				OFFSET 0.000000 -19.300380 -1.231939
				CHANNELS 3 Xrotation Yrotation Zrotation 
				End Site
				{
					OFFSET 0.000000 -2.463878 4.653993
				}
			}
		}
	}
	JOINT rThigh
	{
		OFFSET -5.338403 -1.642589 1.368821
		CHANNELS 3 Xrotation Zrotation Yrotation 
		JOINT rShin
		{
			OFFSET 2.053232 -20.121670 0.000000
			CHANNELS 3 Xrotation Zrotation Yrotation 
			JOINT rFoot
			{
				OFFSET 0.000000 -19.300380 -1.231939
				CHANNELS 3 Xrotation Yrotation Zrotation 
				End Site
				{
					OFFSET 0.000000 -2.463878 4.653993
				}
			}
		}
	}
}
MOTION
Frames: 6
Frame Time: 0.033264
0.000000 43.528500 0.000000 0.000000 0.000000 0.000000 0.000000 0.000000 0.000000 0.000000 0.000000 0.000000 0.000000 0.000000 0.000000 0.000000 0.000000 0.000000 0.000000 0.000000 0.000000 0.000000 0.000000 0.000000 0.000000 0.000000 0.000000 0.000000 0.000000 0.000000 0.000000 0.000000 0.000000 0.000000 0.000000 0.000000 0.000000 0.000000 0.000000 0.000000 0.000000 0.000000 0.000000 0.000000 0.000000 0.000000 0.000000 0.000000 0.000000 0.000000 0.000000 0.000000 0.000000 0.000000 0.000000 0.000000 0.000000 0.000000 0.000000 0.000000 
-0.928161 6.951969 -5.169430 -28.026497 -11.566952 32.016972 -3.422714 -4.261230 -5.040237 33.584007 3.544558 0.052157 -3.872944 7.011137 0.304285 4.067308 17.478897 -2.938447 8.172257 11.852853 -13.694441 -37.001282 -18.000301 30.000408 -77.080276 20.246063 24.174450 -20.001842 0.995488 -52.001598 15.340883 -2.875118 -8.472438 73.415550 4.949382 5.962805 63.022007 -11.896096 5.932689 0.375380 -8.717525 0.849967 -72.514069 -7.451225 48.944557 97.641243 -2.919518 -0.004121 50.375530 22.247396 -27.331192 -88.970963 6.479720 43.962315 116.432068 -2.159383 0.973999 41.215679 24.061747 27.189453 
-0.928161 6.951969 -5.169430 -28.026497 -11.566952 32.016972 -3.422714 -4.261230 -5.040237 33.584007 3.544558 0.052157 -4.126874 6.906383 0.444818 4.067569 17.478996 -2.938665 8.172257 11.852853 -13.694441 -37.001282 -18.000303 30.000410 -77.080276 20.246067 24.174452 -19.736092 0.918831 -51.973907 15.340883 -2.875118 -8.472438 73.415573 4.949457 5.962803 63.150715 -11.896092 5.932707 0.582016 -8.717510 0.849951 -72.514069 -7.451225 48.944557 97.641243 -2.919518 -0.004121 50.375534 22.247396 -27.331192 -88.970963 6.479720 43.962315 116.432068 -2.159383 0.973999 41.215679 24.061747 27.189453 
-0.928161 6.951969 -5.169430 -28.026497 -11.566952 32.016972 -3.422714 -4.261230 -5.040237 33.584011 3.544558 0.052157 -4.381202 6.802166 0.585896 4.067831 17.479095 -2.938882 8.172257 11.852853 -13.694441 -37.001282 -18.000301 30.000408 -77.080276 20.246063 24.174450 -19.470148 0.841979 -51.946548 15.340885 -2.875118 -8.472438 73.415588 4.949530 5.962801 63.279449 -11.896087 5.932725 0.788781 -8.717495 0.849934 -72.514069 -7.451228 48.944557 97.641243 -2.919518 -0.004121 50.375530 22.247396 -27.331192 -88.970963 6.479720 43.962315 116.432068 -2.159383 0.973999 41.215683 24.061747 27.189453 
-0.928161 6.951969 -5.169430 -28.026499 -11.566953 32.016975 -3.422714 -4.261230 -5.040237 33.584007 3.544558 0.052157 -4.635927 6.698495 0.727515 4.068091 17.479195 -2.939100 8.172257 11.852854 -13.694441 -37.001282 -18.000301 30.000408 -77.080276 20.246067 24.174452 -19.204014 0.764933 -51.919518 15.340883 -2.875118 -8.472438 73.415619 4.949605 5.962801 63.408211 -11.896085 5.932744 0.995673 -8.717480 0.849918 -72.514069 -7.451225 48.944557 97.641243 -2.919518 -0.004121 50.375538 22.247395 -27.331194 -88.970963 6.479719 43.962318 116.432076 -2.159384 0.973999 41.215679 24.061747 27.189453 
-0.928161 6.951969 -5.169430 -28.026499 -11.566951 32.016972 -3.422714 -4.261230 -5.040238 33.584007 3.544558 0.052157 -4.891044 6.595372 0.869673 4.068353 17.479296 -2.939317 8.172257 11.852853 -13.694442 -37.001282 -18.000301 30.000404 -77.080284 20.246065 24.174450 -18.937695 0.687698 -51.892822 15.340885 -2.875118 -8.472438 73.415634 4.949678 5.962799 63.536983 -11.896080 5.932762 1.202693 -8.717467 0.849902 -72.514069 -7.451225 48.944557 97.641258 -2.919518 -0.004121 50.375534 22.247398 -27.331196 -88.970963 6.479718 43.962318 116.432068 -2.159383 0.973999 41.215679 24.061747 27.189453 
